<?xml version="1.0" encoding="UTF-8" standalone="no"?>
<!-- Created with Inkscape (http://www.inkscape.org/) -->

<svg
   width="567.72113mm"
   height="214.51411mm"
   viewBox="0 0 567.72113 214.51411"
   version="1.1"
   id="svg5"
   xml:space="preserve"
   inkscape:version="1.2.1 (9c6d41e, 2022-07-14)"
   sodipodi:docname="Sylt2.svg"
   xmlns:inkscape="http://www.inkscape.org/namespaces/inkscape"
   xmlns:sodipodi="http://sodipodi.sourceforge.net/DTD/sodipodi-0.dtd"
   xmlns="http://www.w3.org/2000/svg"
   xmlns:svg="http://www.w3.org/2000/svg"><sodipodi:namedview
     id="namedview7"
     pagecolor="#ffffff"
     bordercolor="#000000"
     borderopacity="0.25"
     inkscape:showpageshadow="2"
     inkscape:pageopacity="0.0"
     inkscape:pagecheckerboard="0"
     inkscape:deskcolor="#d1d1d1"
     inkscape:document-units="mm"
     showgrid="false"
     inkscape:zoom="0.33111502"
     inkscape:cx="812.40651"
     inkscape:cy="537.57754"
     inkscape:window-width="1465"
     inkscape:window-height="814"
     inkscape:window-x="0"
     inkscape:window-y="38"
     inkscape:window-maximized="0"
     inkscape:current-layer="layer1" /><defs
     id="defs2" /><g
     inkscape:label="Ebene 1"
     inkscape:groupmode="layer"
     id="layer1"
     transform="translate(432.45526,-13.346181)"><path
       style="fill:#0c0e0d;stroke:none;stroke-width:0.352778"
       d="m -208.21093,100.70873 c -8.52065,11.19258 -18.75226,21.21712 -27.68001,32.10278 -3.32599,4.05553 -8.70408,7.96466 -10.41999,13.05278 5.19147,1.23613 11.93588,0.69532 17.28611,0.70555 2.0006,0.004 4.48909,0.53376 6.34859,-0.41557 4.51308,-2.30399 8.9535,-9.34402 12.00961,-13.34276 6.66856,-8.7256 14.28574,-16.71637 20.97652,-25.4 3.17077,-4.11515 6.42056,-10.890954 10.82005,-13.727992 1.78117,-1.148645 4.29366,-1.303867 6.28967,-1.9685 5.29908,-1.764595 10.61368,-3.487209 15.875,-5.361517 17.79235,-6.338358 37.45618,-13.495866 52.15114,-25.676224 9.221615,-7.643989 19.780254,-16.629239 24.863782,-27.701874 2.367139,-5.153695 4.078111,-12.082604 -1.234722,-16.35192 -6.635751,-5.333436 -16.315973,-3.061653 -23.56908,-0.83432 -18.57693,5.705017 -34.48862,16.640457 -49.74167,28.356595 -13.26833,10.192102 -24.39212,23.406805 -35.6041,35.749088 -3.66395,4.033308 -7.02769,10.321572 -11.38026,13.50151 -1.86196,1.360312 -4.49403,1.110545 -6.63787,1.550106 -6.32142,1.295753 -12.65731,1.828094 -19.05,2.689225 -26.48867,3.567993 -57.03146,8.916463 -80.43298,-7.42315 -7.95514,-5.554486 -7.56743,-16.244005 -1.93428,-23.370116 2.5781,-3.26143 6.54615,-5.807427 10.04782,-7.982655 11.27654,-7.005814 24.10989,-11.041944 36.68889,-14.750344 12.58111,-3.709106 24.7844,-7.123395 37.74722,-9.399799 6.79415,-1.19313 13.28702,-1.260616 20.10833,-0.11624 2.77778,0.466019 6.34119,1.265378 8.36966,3.39605 6.71265,7.050264 -6.20677,13.384741 -11.19188,15.722247 -17.43639,8.175625 -35.36703,13.966824 -54.68055,15.255874 -2.81482,0.187678 -5.63316,0.586317 -8.46667,0.282575 -2.26272,-0.242358 -4.41078,-1.314802 -6.70278,-1.321858 -1.16522,-0.0039 -5.0098,-0.17145 -4.77449,1.725789 0.21484,1.732139 4.49015,2.135011 5.83282,2.547055 6.27557,1.925814 13.54173,3.097036 20.10834,3.10762 19.23591,0.03104 36.34246,-3.896783 52.56389,-14.571486 6.03744,-3.97263 14.70695,-9.647061 14.3644,-18.033647 -0.32879,-8.044356 -6.96454,-11.918773 -14.01162,-13.871715 -8.66352,-2.401006 -16.6871,-3.970373 -25.75278,-3.970373 -20.30201,0 -39.74924,6.659845 -57.50278,16.005527 -7.81015,4.111625 -16.46485,8.78205 -22.51781,15.393105 -2.75837,3.01237 -5.53649,6.519686 -7.29438,10.229145 -1.08656,2.292702 -1.59068,4.910313 -1.93781,7.408333 -0.45438,3.269897 -1.03999,6.26498 -0.0759,9.524999 3.67559,12.429772 20.08258,17.383827 31.12029,20.019787 4.19383,1.00154 8.70056,2.15265 13.05278,1.99566 14.77645,-0.53304 29.37687,-0.3944 44.09722,-1.96567 6.79309,-0.72496 15.10771,-4.374096 21.87223,-2.76367 m 33.16111,-13.052773 c 0.67239,-2.396067 3.01096,-4.574822 4.57341,-6.499578 3.30659,-4.073878 6.4008,-8.29063 9.79558,-12.298538 13.45706,-15.888406 27.70117,-35.588328 47.36712,-44.001231 7.31661,-3.129809 23.293918,-11.734764 29.594529,-2.785462 1.919112,2.722386 0.575028,5.718563 -0.645583,8.43481 -2.931583,6.533656 -9.584972,12.411075 -15.190611,16.617597 -8.124115,6.096705 -16.332905,13.0048 -25.078625,18.170877 -11.92424,7.043208 -24.07108,12.369447 -37.01027,17.200033 -4.445,1.659467 -8.82544,3.908778 -13.40555,5.161492 m 164.747224,58.913883 c 5.9548894,0.63641 12.0050285,0 17.9916675,0 1.4463889,0 4.9635835,0.6403 6.0007505,-0.5655 1.601611,-1.85984 0.578555,-6.33448 0.733777,-8.60672 0.567973,-8.29521 0.05997,-16.83208 1.128889,-25.04722 0.758473,-5.83071 1.658056,-11.47198 3.880556,-16.933332 0.645583,-1.586442 2.529417,-4.3561 1.104194,-5.844117 -1.665111,-1.741664 -5.108222,-0.526344 -7.203722,-0.564092 -7.224889,-0.130527 -15.0424447,-0.990952 -22.2250004,-0.353483 -1.7497776,0.155222 -7.4541946,-0.916517 -8.1668056,1.197681 -0.465667,1.380066 1.146528,3.546122 1.580444,4.858455 1.259417,3.809647 1.453445,7.718428 2.088445,11.641668 2.106083,13.03267 3.086805,27.01854 3.086805,40.21666 M 109.64185,101.06151 c 6.59695,-0.13194 12.3437,2.35056 18.69722,3.80718 1.66512,0.38171 4.99534,2.12125 6.48406,0.56621 1.81328,-1.88983 -2.46239,-7.663041 -3.49603,-9.312277 -1.10419,-1.764947 -1.88383,-4.004028 -3.2138,-5.593644 -1.34056,-1.604081 -3.52073,-1.461206 -5.41867,-1.461911 -4.04636,-0.0014 -8.32908,0.430036 -12.34722,0.05539 -10.615086,-0.9906 -21.399503,-0.02787 -32.102781,-0.420864 -3.764139,-0.138289 -11.031362,-1.500717 -14.425084,0.219781 -2.014361,1.020586 -2.815167,4.688769 -4.074583,6.495697 -1.601612,2.297288 -7.390695,7.902928 -6.727473,10.883898 0.532695,2.39359 4.8895,0.013 6.177139,-0.41804 5.231695,-1.7519 10.022417,-2.87797 15.522223,-3.46887 1.382889,-0.14852 4.310944,-1.22943 5.284611,0.17216 1.488722,2.14771 0.613833,6.8961 0.726722,9.4114 0.338667,7.46866 1.382889,15.10559 1.23825,22.57778 -0.05644,2.84727 -1.485194,9.21879 0.419806,11.52948 1.160639,1.40653 3.806472,0.73625 5.383389,0.71544 4.575528,-0.061 9.179278,0.10054 13.758331,0.1023 1.56634,7.1e-4 4.26861,0.73378 5.2952,-0.7874 2.00025,-2.96474 0.89958,-9.8365 1.06891,-13.32371 0.50095,-10.38966 2.81164,-21.33494 1.74978,-31.75 m -185.208336,25.4 h -0.352778 c -4.258028,-8.08672 -9.800167,-15.48694 -13.285611,-23.98889 -1.146528,-2.801401 -2.765778,-5.356218 -3.986389,-8.113882 -0.564445,-1.273175 -0.874889,-3.1242 -2.176639,-3.870677 -1.55575,-0.890059 -4.226278,-0.0127 -5.951357,-0.0099 -4.74487,0.0078 -9.38389,-0.508353 -14.11112,-0.751417 -5.33576,-0.274814 -10.88919,-0.649816 -16.22777,-0.334433 -1.25413,0.07408 -4.63021,-0.176036 -4.99816,1.490839 -0.36407,1.647472 1.86831,2.755194 2.86773,3.607858 2.5647,2.18828 5.26874,5.114219 7.49124,7.660572 8.91399,10.2115 16.0401,21.70324 23.81391,32.77658 1.72508,2.45639 2.16253,5.25533 2.804582,8.11389 0.271639,1.21179 0.296334,2.98308 1.5875,3.56517 2.599973,1.1744 6.738056,0.18485 9.472084,-0.006 5.767917,-0.40216 12.767028,-0.80151 18.344445,0.67381 1.890889,-4.45523 0.934861,-9.65906 2.959805,-14.11111 2.169584,-4.77097 5.838473,-7.86377 9.355667,-11.64167 3.693584,-3.96698 7.009695,-8.18797 11.027834,-11.85862 4.818944,-4.39985 9.246306,-9.18916 14.054667,-13.601347 1.474611,-1.351139 4.974167,-3.082572 5.185833,-5.231342 0.239889,-2.420055 -2.518833,-2.117019 -4.131027,-2.117019 -4.011084,-3.53e-4 -8.004528,0.352778 -11.994445,0.352778 -1.559278,0 -3.84175,-0.711906 -5.252861,0.06456 -1.449917,0.795514 -1.337028,2.485319 -1.950862,3.815997 -1.072444,2.337153 -2.931583,4.586111 -4.399139,6.702778 -3.383139,4.887735 -6.787444,10.133185 -10.406944,14.816665 -3.153834,4.08763 -6.988528,7.5759 -9.740195,11.99444 m -258.233334,-3.63008 c -27.72834,0.369 -54.92539,9.56804 -75.49304,28.71011 -4.55613,4.24074 -8.20879,9.45868 -11.90096,14.43108 -10.59416,14.26739 -17.66796,35.70746 -2.65112,49.47849 14.57466,13.3657 36.67054,13.85888 55.12011,10.99609 9.23149,-1.43228 18.77025,-2.40771 27.86945,-4.56036 20.08964,-4.75262 39.28322,-13.0115 57.50278,-22.47865 11.15624,-5.79719 21.5773,-13.36745 31.04444,-21.5907 2.28001,-1.9805 4.58118,-4.04989 6.70102,-6.20078 0.62688,-0.6357 1.95615,-1.67675 1.79352,-2.70968 -0.24483,-1.55399 -7.88,-0.87666 -9.20009,-0.78599 -3.29459,0.22542 -6.56132,0.45226 -9.87778,0.30727 -1.80269,-0.079 -3.87668,-0.76976 -5.64444,-0.1263 -3.21134,1.1684 -6.72183,5.22323 -9.17223,7.56215 -18.31975,17.48825 -38.61576,30.38087 -62.44167,38.6842 -12.74127,4.44041 -26.27383,8.22148 -39.86388,8.22148 -14.47518,0 -33.16147,-1.73743 -41.4588,-15.52222 -2.94746,-4.89656 -1.51271,-10.25666 0.58949,-15.16944 3.64631,-8.521 8.10189,-15.10242 14.31149,-21.88634 18.79212,-20.52955 47.2246,-30.71565 73.83004,-36.14561 7.61083,-1.55328 16.20873,-3.50379 23.98889,-2.32269 2.09938,0.31856 4.03895,0.0473 5.99722,1.05305 1.45344,0.74647 2.77918,1.70956 4.02908,2.75484 8.64481,7.23053 -3.181,17.33303 -9.02794,21.76497 -18.81152,14.25858 -38.25699,23.80792 -60.97059,30.0923 -5.79331,1.60302 -13.39215,2.49978 -19.40277,2.5714 -1.37513,0.0162 -6.67491,-0.71649 -5.27509,2.10432 1.23225,2.48285 6.36552,2.94816 8.80286,3.4671 9.13801,1.94627 17.95498,2.15088 27.16389,0.8262 21.27356,-3.05999 42.61485,-11.51995 57.12707,-27.92095 6.97513,-7.88282 16.26235,-21.52473 9.20715,-32.09219 -4.69088,-7.02627 -15.15463,-10.45704 -22.94255,-12.20258 -6.33942,-1.42099 -13.28314,-1.39665 -19.75555,-1.31057 m -16.93334,9.6273 -1.41111,1.05834 1.41111,-1.05834 m 95.25,22.93056 18.69723,-0.26141 6.31719,0.005 4.26614,-5.03485 c -4.85387,-2.04823 -10.77454,0.0727 -15.875,-0.41275 -2.29941,-0.21872 -5.92455,-1.20897 -8.11389,-0.38347 -2.24578,0.84702 -4.93254,3.71863 -5.29167,6.08789 m 358.06593,-6.19654 c -4.325058,0.52564 -9.415641,0.74577 -13.754808,0.42509 -1.478139,-0.10936 -4.882444,-0.96449 -6.00075,0.33973 -0.973667,1.13524 -0.878417,4.83341 0.762,5.31953 4.589639,1.36243 11.373556,0.11219 16.174862,0.11219 1.721556,0 4.342696,0.48648 5.944306,-0.21273 1.49578,-0.65264 1.63689,-4.45241 0.5468,-5.51885 -0.86077,-0.84067 -2.59997,-0.59549 -3.67241,-0.46496 m -91.718698,0.35454 c -5.136445,0.51329 -10.36461178,0.19755 -15.522223,0.19755 -1.2805834,0 -4.3885557,-0.56444 -5.2810835,0.56551 -0.8360835,1.05586 -0.6879165,4.51802 0.7761112,4.96675 4.5367223,1.39065 11.3911947,0.11219 16.1466392,0.11219 1.6615834,0 4.3673891,0.51364 5.8913891,-0.21273 2.815167,-1.34161 0.927806,-5.92314 -2.010833,-5.62927 m -108.54267,0.57397 c -1.531055,0.94791 -0.515055,4.34163 0.966612,4.81683 5.542139,1.778 13.183305,-0.37007 19.028833,0.15804 1.566334,0.14146 5.602112,0.86113 6.794501,-0.32173 0.987777,-0.98178 1.044222,-4.10669 -0.497417,-4.5646 -1.845028,-0.54821 -4.377972,-0.11218 -6.297084,-0.11218 h -13.405555 c -1.598084,0 -5.263445,-0.79763 -6.58989,0.0236 m -167.682332,14.79303 c 5.32729,1.5748 13.1071,0.70555 18.69722,0.70555 2.12901,0 5.0426,0.50836 7.05555,-0.26176 2.28318,-0.87348 5.64586,-4.72475 5.99723,-7.14657 -5.49699,0 -11.09451,0.30798 -16.58021,-0.0303 -2.63913,-0.16298 -6.29002,-1.02835 -8.81979,-0.0607 -2.40277,0.91934 -5.19819,4.57377 -6.35,6.7938 m 168.680694,-6.43961 c -1.566334,0.68686 -1.80975,5.78944 -0.254,6.57966 1.389944,0.70485 3.965222,0.21273 5.49275,0.21273 4.441472,0 8.911167,-0.1711 13.345583,-0.0674 1.598084,0.0374 4.529667,0.64946 5.9055,-0.29528 1.326445,-0.9144 1.915584,-5.72452 0.07056,-6.37117 -1.478139,-0.51823 -3.979333,0.031 -5.563306,0.031 -4.339166,0 -8.727722,-0.21625 -13.052778,-0.0265 -1.742722,0.0765 -4.353278,-0.76024 -5.944305,-0.0632 m 86.7304182,0.0896 c 0,1.48801 -0.6455832,5.02461 0.5644445,6.10552 0.9666111,0.85937 3.8417501,0.24448 5.0800001,0.24448 H 7.3362937 c 1.3828889,3.5e-4 3.5806943,0.52105 4.8295283,-0.16687 1.432277,-0.79092 2.0955,-5.59188 0.409222,-6.32283 -1.693334,-0.73449 -4.7907225,0.1397 -6.6498614,0.1397 h -6.35000018 c -3.09033342,0 -6.49463902,-0.50024 -9.52500022,0 m 93.5990018,0.01 c -1.375833,0.91828 -1.361722,5.76368 0.321028,6.39903 1.245306,0.47061 2.850445,-0.39617 4.152195,-0.36618 4.233333,0.0977 8.4455,0.31503 12.700003,0.25823 1.43933,-0.019 3.93347,0.55457 5.08,-0.5655 1.13947,-1.1176 1.10772,-5.15867 -0.54328,-5.81237 -1.13947,-0.45014 -2.62114,0.10301 -3.83117,-0.025 -4.215692,-0.44697 -8.628942,-0.3482 -12.872859,-0.16793 -1.453444,0.0617 -3.7465,-0.56162 -5.005917,0.27976 m 22.464886,37.38456 c -1.05833,-5.67866 -0.90664,-11.56405 -0.2928,-17.28611 0.25753,-2.42535 1.38994,-7.60377 0.43391,-9.82557 -0.81138,-1.87572 -3.58069,-0.84031 -5.08,-0.80327 -4.194523,0.10372 -8.477246,0.0455 -12.699996,0.0455 -1.30175,0 -4.011083,-0.50871 -4.98475,0.5655 -1.005416,1.11266 -0.306916,4.02731 -0.306916,5.43172 0,5.07189 0.41275,10.11202 0.352777,15.16944 -0.02117,1.71556 -1.414639,4.84188 0.112889,6.13728 1.368778,1.1617 3.915834,0.23318 5.531556,0.21413 3.869972,-0.0462 7.771695,-0.10936 11.64167,0.004 1.87677,0.0554 3.429,0.88159 5.29166,0.34748 M -96.652014,168.35105 c -1.68275,0.78422 -1.266472,4.1977 -1.231195,5.73546 0.119945,4.96076 -0.201083,10.22209 -0.673805,15.16944 -0.148167,1.56881 -1.245306,4.43195 -0.282222,5.84412 1.121833,1.64677 4.039305,0.502 5.633861,0.62054 4.109861,0.3048 8.244417,-0.5454 12.347222,-0.0127 2.282473,0.29668 5.757334,1.58573 7.962195,0.39581 1.27,-0.68756 0.613833,-2.55164 0.536222,-3.67277 -0.204611,-3.00249 -0.497417,-6.55496 -0.176389,-9.525 0.356306,-3.29035 0.331611,-6.60611 0.751417,-9.87777 0.155222,-1.20086 0.627944,-3.30306 -0.250472,-4.32435 -1.033639,-1.20121 -4.226278,-0.61454 -5.647973,-0.61454 -4.356805,0 -8.710083,0.44026 -13.052778,0.34784 -1.774472,-0.0377 -4.236861,-0.86748 -5.916083,-0.0861 m 108.574419,15.61324 c 0,-3.80683 0.525639,-7.50359 0.691444,-11.28889 0.04586,-1.07703 0.366889,-3.1175 -0.34925,-4.02061 -1.347611,-1.70392 -8.8300276,-0.5655 -10.9255277,-0.5655 -2.3777222,0 -8.4596113,-1.09855 -10.3751946,0.36265 -1.3123337,1.00048 -0.9031112,4.17936 -0.9136945,5.63598 -0.035278,4.90785 -0.042333,9.91588 -0.1622782,14.81526 -0.0388,1.67887 -1.55575,4.40231 -0.966611,5.89879 0.582084,1.4859 3.0409448,1.17087 4.2897782,1.13912 4.5085001,-0.11465 8.9076391,-0.29668 13.4196669,0.048 8.7030279,0.66534 17.3919449,0.0113 26.1055559,-0.03 3.263195,-0.0155 8.653639,1.03682 11.616973,-0.5147 1.852083,-0.96978 2.268361,-4.01214 2.815166,-5.83565 1.100667,-3.66607 3.354917,-7.16421 5.058834,-10.58333 0.585611,-1.17757 2.247194,-3.90843 0.504472,-4.89726 -1.756833,-0.99942 -4.152194,1.53881 -5.531556,2.30469 -4.339166,2.41089 -9.740194,3.20922 -14.463889,4.61081 -6.409972,1.90253 -14.118167,2.63313 -20.813889,2.92065 m -382.411115,10.34803 c 0.27269,0 0.0564,0.17568 -0.11748,0.11783 z"
       id="path248" /></g></svg>
