<?xml version="1.0" encoding="UTF-8" standalone="no"?>
<!-- Created with Inkscape (http://www.inkscape.org/) -->

<svg
   width="676.07721mm"
   height="193.21512mm"
   viewBox="0 0 676.07721 193.21512"
   version="1.1"
   id="svg5"
   xml:space="preserve"
   inkscape:version="1.2.1 (9c6d41e, 2022-07-14)"
   sodipodi:docname="Sylt.svg"
   xmlns:inkscape="http://www.inkscape.org/namespaces/inkscape"
   xmlns:sodipodi="http://sodipodi.sourceforge.net/DTD/sodipodi-0.dtd"
   xmlns="http://www.w3.org/2000/svg"
   xmlns:svg="http://www.w3.org/2000/svg"><sodipodi:namedview
     id="namedview7"
     pagecolor="#ffffff"
     bordercolor="#000000"
     borderopacity="0.25"
     inkscape:showpageshadow="2"
     inkscape:pageopacity="0.0"
     inkscape:pagecheckerboard="0"
     inkscape:deskcolor="#d1d1d1"
     inkscape:document-units="mm"
     showgrid="false"
     inkscape:zoom="1.5859998"
     inkscape:cx="2691.6775"
     inkscape:cy="171.81591"
     inkscape:window-width="1395"
     inkscape:window-height="719"
     inkscape:window-x="0"
     inkscape:window-y="38"
     inkscape:window-maximized="0"
     inkscape:current-layer="layer1" /><defs
     id="defs2" /><g
     inkscape:label="Ebene 1"
     inkscape:groupmode="layer"
     id="layer1"
     transform="translate(407.73083,-0.63165883)"><path
       style="display:inline;fill:#000000;stroke-width:0.352778"
       d="m -184.73393,193.79083 c -0.0877,-0.0827 -5.22616,-0.25942 -11.41888,-0.3927 -3.64572,0.0848 -9.29421,0.35404 -13.03061,-1.09673 -0.97411,-0.46992 -2.01921,-0.85454 -2.32245,-0.85469 -0.30324,-1.5e-4 -1.55778,-0.4764 -2.78787,-1.05833 -1.2301,-0.58193 -2.39945,-1.05806 -2.59857,-1.05806 -2.89665,-1.54923 -7.94218,-4.07383 -9.07831,-5.23839 -0.88484,-0.94085 -2.12467,-2.0069 -2.75517,-2.36902 -0.75853,-0.43565 -1.34501,-1.17856 -1.73354,-2.1959 -0.32294,-0.84562 -0.85555,-1.883 -1.18358,-2.30528 -0.32803,-0.42229 -0.78518,-1.4028 -1.01591,-2.17891 -0.23072,-0.77611 -0.71323,-2.04611 -1.07223,-2.82222 -1.23104,-2.66133 -1.36858,-3.1822 -1.76988,-6.70278 -1.31353,-11.52365 2.28374,-22.00235 8.35877,-24.34871 l 1.49559,-0.57765 1.97799,0.96775 c 1.30441,0.63818 2.09638,1.27835 2.32562,1.87984 1.35217,3.54785 3.36377,7.06273 4.26782,7.45717 0.53862,0.23501 1.31402,0.89736 1.72312,1.47189 0.40911,0.57454 1.4551,1.3495 2.32443,1.72213 0.86933,0.37264 1.99893,0.96857 2.51021,1.32429 0.51129,0.35572 1.47493,0.83178 2.14143,1.05791 0.6665,0.22613 1.46025,0.62218 1.76389,0.88012 0.57296,0.48672 3.82251,1.10626 7.78402,1.48405 1.26118,0.12027 3.4043,0.33704 4.7625,0.4817 6.40263,0.68196 16.94618,-0.14294 19.55253,-1.52974 0.66445,-0.35355 2.51704,-1.09636 4.11687,-1.65069 1.59983,-0.55433 4.09255,-1.72655 5.53937,-2.60494 1.44682,-0.87838 2.94882,-1.59706 3.33778,-1.59706 0.39179,0 1.12147,-0.54312 1.63601,-1.21773 0.51084,-0.66975 1.41099,-1.50256 2.00033,-1.85069 0.62534,-0.36939 1.60118,-1.58837 2.3435,-2.92741 0.69959,-1.26195 1.89868,-3.05074 2.66466,-3.9751 1.17142,-1.41365 1.34958,-1.83399 1.12141,-2.64583 -0.14919,-0.53085 -0.24043,-1.0986 -0.20276,-1.26167 0.0377,-0.16306 -0.38468,-1.03619 -0.93858,-1.94028 -0.5539,-0.90408 -1.70962,-3.05506 -2.56827,-4.77994 -2.25453,-4.52896 -2.44461,-4.85711 -3.55453,-6.13655 -0.5529,-0.63734 -1.00527,-1.39783 -1.00527,-1.68997 -3.59777,-6.52119 -7.76915,-13.2852 -10.23055,-17.6832 0,-0.20455 -0.26393,-0.58978 -0.5865,-0.85608 -0.32257,-0.26629 -0.89236,-1.17407 -1.26619,-2.01728 -0.37383,-0.84321 -1.26084,-2.17527 -1.97114,-2.960134 -4.17397,-6.388838 -8.37778,-13.208848 -10.11825,-15.543583 -4.16932,-5.788983 -8.81658,-12.758531 -11.59524,-17.73197 -5.46077,-7.410485 -13.1222,-17.625756 -16.95074,-22.224969 -0.98205,-0.981992 -2.32577,-2.468675 -2.98604,-3.303743 -0.66027,-0.835067 -1.69537,-1.725076 -2.30022,-1.977799 -0.60485,-0.252723 -1.38579,-0.775596 -1.73543,-1.161941 -0.34963,-0.386344 -1.14016,-0.905651 -1.75672,-1.154017 -0.61657,-0.248362 -1.60582,-0.813583 -2.19835,-1.25604 -2.83477,-2.116815 -6.44642,-2.27607 -10.21157,-0.450282 -0.77611,0.37635 -1.68892,0.683835 -2.02847,0.683295 -0.33955,-5.4e-4 -0.61736,0.157769 -0.61736,0.351797 0,0.526256 -3.29251,0.426201 -4.04342,-0.122873 -1.14209,-0.472995 -1.64438,-0.838144 -2.15953,-2.119418 -0.35901,-0.935567 1.13823,-3.704484 2.40834,-4.453869 3.8245,-4.199147 9.8022,-8.720477 14.44792,-11.926165 4.04367,-3.388531 9.54478,-6.151273 14.04113,-7.6454808 6.19775,-4.9651428 29.63458,-5.3230817 34.75866,-0.5308565 0.39358,0.3680918 1.39592,0.9092883 2.22743,1.2026613 3.72032,1.312609 8.07183,5.064683 10.22652,8.817794 0.45229,0.787806 1.35343,1.870872 2.00254,2.406816 0.64911,0.535944 1.37069,1.567819 1.60351,2.293056 0.23283,0.725237 0.63939,1.567046 0.90348,1.870685 0.26409,0.303643 0.66566,1.097393 0.89238,1.763889 0.22672,0.666499 0.83911,1.767441 1.36087,2.446538 9.34767,15.812288 17.92351,31.541408 25.04832,42.863422 0.19321,0.119408 0.35129,0.520993 0.35129,0.892408 0,0.738068 0.76368,2.535181 2.91847,6.867783 4.29382,8.633552 5.87652,10.861262 6.4747,9.113365 0.12172,-0.355685 0.59805,-1.470304 1.05851,-2.476934 2.03059,-3.392385 3.15197,-7.425273 4.75584,-10.444512 1.94354,-2.877426 3.01511,-6.127196 4.65313,-9.068308 0.27299,-0.48507 0.78901,-1.516945 1.1467,-2.293056 4.84751,-10.936161 12.003901,-21.67747 17.350351,-30.487053 0.378178,-0.76437 1.180783,-1.804769 1.783574,-2.311989 0.602827,-0.507224 1.2071,-1.272441 1.342848,-1.700481 0.290019,-0.914498 3.679226,-5.540756 4.059167,-5.540756 0.143157,0 0.602368,-0.553536 1.020516,-1.230079 0.418112,-0.676544 1.231723,-1.508612 1.808056,-1.849046 0.576298,-0.340431 1.332265,-1.096585 1.679893,-1.680337 2.628817,-2.323843 9.602065,-5.467317 12.833279,-6.321859 1.885173,-0.489804 3.786928,-1.122942 4.226136,-1.406974 0.439208,-0.284028 2.123193,-0.695596 3.742196,-0.914597 1.619038,-0.219001 3.299037,-0.533291 3.733341,-0.698419 1.772532,-0.673915 15.796965,-0.37023 18.546621,0.401606 0.679097,0.190627 2.187222,0.489341 3.351389,0.663811 4.461968,0.668708 4.956174,0.784656 5.542385,1.300364 0.728583,0.199199 1.305162,0.361974 2.293056,0.251975 0.936045,-0.104226 1.848308,-0.237712 2.042336,-0.187332 0.194028,0.05038 2.297289,0.146187 4.673917,0.212905 2.376629,0.06672 4.6476,0.224913 5.046557,0.351539 0.889282,0.282251 7.5050995,0.543444 13.2100804,0.521536 4.3528542,-0.01672 7.8859941,-0.445734 10.0541662,-1.220851 4.0755714,-1.457004 4.5229284,-1.581026 8.2902774,-2.298252 1.164167,-0.221632 2.958535,-0.642165 3.987447,-0.934512 1.028947,-0.29235 2.311047,-0.434848 2.849139,-0.316664 0.538092,0.118185 1.442473,0.02928 2.009775,-0.197583 0.567267,-0.2268541 1.507666,-0.4535561 2.08975,-0.5037811 1.436863,-0.1239802 5.129177,-0.8991212 5.997222,-1.2590145 5.288385,-2.1926057 25.433406,-1.2795321 26.383296,1.1958214 0.456882,1.1906392 0.63059,4.3756792 0.287514,5.2718262 l -0.371405,0.970139 -2.213574,0.01708 c -3.375166,0.02604 -8.776335,0.846554 -10.090256,1.532837 -1.23705,0.646151 -4.104251,2.661528 -4.999743,3.514372 -4.30851,4.103353 -6.793194,7.496867 -6.533514,8.923412 0.154128,0.846878 -0.09708,1.686302 -1.055864,3.527778 -1.019351,1.957747 -1.290461,2.918724 -1.428291,5.062298 -0.232622,3.618346 -0.478473,4.954813 -1.065636,5.793119 -0.27626,0.394395 -0.500027,1.536788 -0.500027,2.552689 0,1.011347 -0.158151,2.254751 -0.351402,2.763115 -0.193287,0.508363 -0.433917,2.384008 -0.534741,4.168104 -0.622657,4.643277 -2.764423,16.04634 -2.458226,21.059084 -0.09592,3.395487 -0.28381,7.840487 -0.417548,9.877778 -0.248523,3.000567 -0.06563,5.71502 -0.475473,8.651533 -0.548139,4.63428 -1.286927,20.134579 -1.651141,26.449849 0.05492,3.84553 0.214454,7.17017 0.168734,10.69222 -0.01588,1.68636 -0.181857,3.36707 -0.369217,3.7349 -0.18736,0.36783 -0.292876,2.6697 -0.234421,5.11528 0.05842,2.44557 0.123508,6.35149 0.144604,8.67983 0.08819,9.72367 2.018382,11.94146 11.08844,12.74052 1.471401,0.12963 3.072165,0.39725 3.557234,0.59472 1.504033,0.61226 8.503073,1.21254 10.054167,0.8623 0.776111,-0.17525 3.47486,-0.36678 5.997221,-0.42563 3.218956,-0.0751 5.427451,-0.32639 7.408333,-0.84295 1.552223,-0.40478 3.060348,-0.70821 3.351389,-0.67429 1.5373,0.17917 7.985266,-1.41678 10.45023,-2.58658 3.391792,-0.75411 5.225505,-2.59407 7.972883,-4.15932 1.110404,-0.62696 2.334084,-1.5673 2.719247,-2.08963 2.183941,-2.96175 2.776643,-3.74572 3.816667,-5.04842 1.639267,-2.57271 3.545097,-4.91412 4.495517,-7.0029 0.164148,-0.7474 0.6991,-1.40608 1.668745,-2.05476 0.784931,-0.5251 1.842347,-1.23171 2.349853,-1.57024 1.98797,-1.32611 4.81863,-0.0699 5.67249,2.51736 l 0.47487,1.43881 -1.11305,2.41475 c -0.61214,1.32811 -1.11301,2.83327 -1.11301,3.34478 0,0.51152 -0.22126,1.45136 -0.49167,2.08853 -0.6284,1.48062 -2.18962,6.67858 -2.62604,8.74322 -0.184571,0.87313 -0.502918,2.06375 -0.707494,2.64584 -0.20454,0.58208 -0.938671,2.96333 -1.63135,5.29166 -1.335824,5.14051 -3.533089,14.89837 -4.98803,19.85572 -0.270334,0.63718 -1.46301,3.02854 -1.46301,3.38466 -1.846928,4.77418 -6.43488,3.50073 -11.022955,4.31958 -1.843263,0.0828 -4.462638,0.22701 -5.820833,0.32036 -12.003192,0.825 -20.157192,0.77402 -23.698022,-0.14815 -9.395265,-1.40188 -10.953637,-1.31863 -18.459097,-2.67014 -0.873125,-0.25982 -3.174999,-0.73301 -5.115277,-1.05154 -1.940278,-0.31853 -4.004028,-0.70567 -4.586111,-0.86031 -1.797509,-0.47754 -10.363623,-0.19211 -13.2033428,0.43994 -1.4409913,0.32072 -2.9236104,0.48677 -3.2947326,0.36897 -0.8203494,-0.26035 -5.48364807,0.72802 -7.6672013,1.62505 -14.2978013,1.64624 -20.4758213,1.68083 -35.3126693,0.34504 -1.660807,0 -3.322531,-0.20425 -3.968749,-0.48781 -0.6114,-0.26829 -1.614805,-0.67913 -2.229803,-0.91299 -3.878015,-1.47465 -2.142419,-8.47698 2.101109,-8.47698 0.858379,0 2.397548,-0.82153 3.199624,-1.70778 0.359198,-0.39692 1.138555,-0.82829 1.731857,-0.95861 1.876883,-0.41223 5.288138,-4.18416 6.043224,-6.68222 0.351896,-1.16417 0.944739,-2.6182 1.317448,-3.23119 0.689469,-1.13403 0.997973,-5.74885 1.552716,-23.22714 0.08622,-2.71639 0.534989,-6.1649 0.766552,-8.20219 0.04228,-5.0816 0.945675,-29.36906 1.719619,-43.126978 0.08573,-3.589514 0.232304,-8.907639 0.32572,-11.818055 0.09342,-2.910417 0.240312,-7.593542 0.326496,-10.406945 0.08615,-2.813403 0.321522,-7.240464 0.523063,-9.837918 0.201542,-2.597453 0.269029,-4.880215 0.150002,-5.072807 -0.230717,-0.373302 -0.349533,-2.244446 -0.615668,-9.695921 -0.09186,-2.571083 -0.259821,-4.824882 -0.373239,-5.008439 -0.113453,-0.183554 -0.279929,-2.074023 -0.369958,-4.20104 -0.09003,-2.127017 -0.319546,-4.277156 -0.509976,-4.778082 -0.190464,-0.500927 -0.266911,-1.11766 -0.169862,-1.370521 0.336867,-0.877852 -0.886213,-3.456069 -2.565047,-5.407 l -1.688112,-1.961724 -2.822222,0.211223 c -1.552223,0.116173 -3.339995,0.209274 -3.972807,0.206897 -0.632813,-0.0025 -2.355003,0.575123 -3.827075,1.283338 -5.510733,1.436101 -5.52916,3.34655 -11.363253,8.698432 -0.810895,0.738554 -1.474365,1.49957 -1.474365,1.691146 0,0.191579 -0.79375,1.30211 -1.763888,2.46785 -0.970139,1.16574 -1.763889,2.320554 -1.763889,2.56625 -6.619034,10.882006 -14.145734,22.942668 -20.128758,32.854149 -1.301292,2.551875 -2.363576,4.366183 -3.117568,5.324743 -0.408411,0.519212 -0.742562,1.250545 -0.742562,1.625191 0,1.131242 -2.620953,4.627058 -4.893705,7.866733 -0.505513,0.72058 -1.456048,1.967537 -1.577297,2.789311 -10.08962,19.377087 -27.336072,47.202807 -33.910012,57.257557 -0.50462,1.01119 -1.08868,1.94433 -1.2979,2.07364 -0.20923,0.1293 -0.7537,1.07918 -1.20995,2.11084 -0.45625,1.03165 -1.14792,2.04612 -1.53704,2.25438 -0.38913,0.20825 -1.1388,1.12979 -1.66593,2.04785 -0.52712,0.91807 -1.48461,2.26498 -2.12773,2.99314 -0.64313,0.72816 -1.16932,1.48302 -1.16932,1.67745 0,0.45733 -4.06457,5.12158 -7.23016,8.29688 -1.35917,1.36335 -2.76139,2.92443 -3.11603,3.46905 -0.35464,0.54463 -1.14839,1.20269 -1.76389,1.46236 -0.6155,0.25966 -1.67471,1.0537 -2.35381,1.76452 -0.6791,0.71082 -1.71097,1.53463 -2.29305,1.83069 -0.58209,0.29607 -1.37584,0.83064 -1.76389,1.18793 -0.38806,0.35729 -1.07479,0.98668 -1.52607,1.39864 -0.45128,0.41196 -1.72128,1.27805 -2.82222,1.92465 -1.10094,0.64659 -2.38657,1.58705 -2.85696,2.0899 -0.47038,0.50285 -1.19386,0.91428 -1.60772,0.91428 -0.92199,0 -5.25855,2.14565 -6.30191,3.11807 -2.82983,1.2878 -5.9099,1.68433 -8.74202,2.38864 -1.47963,0.65784 -2.9387,1.19606 -3.24238,1.19606 -0.30367,0 -0.63852,0.13978 -0.74411,0.31062 -0.10558,0.17084 -1.58339,0.41601 -3.28401,0.54482 -1.70063,0.12882 -3.49657,0.31212 -3.99099,0.40733 -0.49443,0.0952 -0.97068,0.10546 -1.05834,0.0228 z m 312.061,-1.79543 c -4.00583,-1.09302 -4.06901,-7.60397 -0.0738,-7.60397 0.27267,0 0.921,-0.3345 1.44075,-0.74333 0.51975,-0.40884 1.85635,-1.1848 2.97018,-1.72435 1.11386,-0.53955 2.24719,-1.24853 2.51855,-1.5755 0.27135,-0.32697 1.06158,-0.88436 1.75602,-1.23864 1.76604,-0.90097 4.99978,-4.71516 5.34575,-6.30534 0.15427,-0.70908 0.51682,-2.24173 0.80567,-3.40589 0.5757,-2.32022 0.99071,-12.61533 1.38649,-34.39584 0.0617,-3.39548 0.21717,-6.49111 0.34544,-6.87916 0.0751,-7.91036 0.30914,-16.68893 0.46606,-24.16528 0.0714,-3.58952 0.29838,-7.761804 0.50436,-9.271753 0.24529,-1.797981 0.28367,-6.058821 0.11123,-12.347222 -0.14485,-5.281024 -0.19417,-11.586235 -0.10964,-14.011583 0.12323,-3.536057 0.1076,-10.444402 -0.0421,-18.609028 -0.008,-0.436562 0.0162,-1.432017 0.0536,-2.212121 0.12823,-2.668249 -2.06968,-3.659212 -7.43638,-3.352843 -1.64924,0.09415 -8.71361,0.258795 -15.69861,0.36588 -6.985,0.107086 -13.335,0.250984 -14.11111,0.319776 -3.7295,0.330563 -5.75416,0.711323 -6.93794,1.304763 -0.711415,0.35664 -1.822665,0.678973 -2.469448,0.716294 -0.646783,0.03732 -2.330379,0.59648 -3.741314,1.242571 -1.41097,0.646088 -2.797704,1.174708 -3.081655,1.174708 -0.603602,0 -4.555137,1.981722 -5.777653,2.897519 -2.771069,2.075896 -5.473453,-2.047554 -3.219661,-4.912783 0.390278,-0.496161 0.709612,-1.124748 0.709612,-1.396859 0,-0.272115 0.674688,-1.186261 1.499306,-2.031443 1.953048,-2.001739 3.792361,-4.397685 3.792361,-4.940032 0,-0.236241 0.379271,-0.785816 0.842786,-1.221285 0.46355,-0.435469 0.928652,-1.221045 1.033603,-1.745731 0.104916,-0.524683 0.67818,-1.567269 1.273845,-2.316854 0.595701,-0.749586 1.083099,-1.550508 1.083099,-1.779828 0.991057,-1.765094 4.881694,-7.704673 5.997222,-10.237519 0,-0.23718 0.473357,-1.12981 1.051912,-1.983628 0.578555,-0.853813 1.054805,-1.881907 1.058335,-2.284648 0.0106,-1.198027 1.58207,-2.362888 3.62454,-2.686541 2.40464,-0.381035 1.51201,-0.371881 9.96382,-0.102182 9.07489,0.289581 7.2643,0.280476 15.07331,0.07582 3.63365,-0.09523 7.10192,-0.07185 7.70728,0.05196 2.5557,0.08426 5.73555,-0.123505 8.96941,0.18595 2.23865,-0.06885 5.30666,0.464471 14.2875,0.178752 0.6791,-0.02159 4.05843,-0.02127 7.50965,7.06e-4 7.74759,-0.587827 17.14643,-0.332936 21.94729,0.06385 2.52237,0.208555 7.04674,0.376721 10.05417,0.373698 9.43758,-0.0095 28.29761,-0.346622 30.69167,-0.548644 1.26118,-0.106426 5.86493,-0.252063 10.23055,-0.323638 4.36563,-0.07157 8.96938,-0.324175 10.23056,-0.561333 2.13469,-0.401419 9.09267,-0.559174 13.89634,-0.31507 3.58069,0.18196 4.5135,2.545934 2.2837,5.787514 -0.67303,0.978394 -1.67054,3.037092 -2.21668,4.574886 -2.07292,3.998083 -6.679,11.162017 -8.43805,14.906819 -1.22311,2.622303 -2.44188,4.594915 -3.56124,6.827891 -0.87231,1.685558 -1.24952,2.992536 -2.19595,3.423768 -0.91782,0.543647 -1.73318,1.011856 -3.0373,0.279411 -0.23921,-0.100732 -1.9431,-0.845097 -3.78636,-1.654143 -4.23594,-1.859242 -4.22331,-1.85819 -21.34305,-1.774092 -10.18904,0.05005 -15.25782,0.708611 -16.46072,2.138634 -0.32216,0.382972 -0.7341,0.696313 -0.91546,0.696313 -1.25839,0 -1.47754,1.180021 -1.28026,6.894326 0.16605,4.810499 0.48602,17.214261 0.48648,18.858453 7e-5,0.291041 -0.16108,2.354791 -0.35814,4.586111 -0.0228,7.280847 -0.95985,29.32782 -1.1948,39.33472 -0.25915,5.06007 -0.24691,7.01191 0.0866,13.81616 0.17276,3.5243 0.20539,7.17555 0.0725,8.11389 -0.2172,1.53378 -0.15907,9.53749 0.10587,14.58245 0.13384,2.54858 0.57051,4.59718 1.16346,5.45836 0.0785,1.17805 1.1741,3.77043 1.18466,4.67383 0,1.14949 1.45475,3.69722 3.21691,5.63376 0.73992,0.81316 1.44865,1.89026 1.57498,2.39357 0.13413,0.53442 0.68943,1.1487 1.33488,1.47662 3.83046,3.5226 7.28854,5.52259 8.98119,6.11664 1.24668,0 3.73401,1.96384 4.15089,3.27724 0.13141,0.4141 0.60723,1.04259 1.05734,1.39665 0.92019,0.72383 0.78317,1.67611 -0.24116,1.67611 -0.3896,0 -1.02873,0.5787 -1.54855,1.40219 -1.37587,2.17951 -2.2624,2.60454 -4.85884,2.32956 -2.51831,-0.26671 -2.77273,-0.26812 -7.31764,-0.0407 -4.86103,0.2432 -5.63551,0.24217 -7.51571,-0.01 -4.64092,0.34265 -14.87605,0.42432 -23.52432,-0.38646 -2.64227,-1.02545 -14.50947,-1.21038 -19.26643,-0.30022 -1.63315,0.31247 -2.94156,0.38996 -3.43256,0.20329 -5.82923,0.38695 -10.97174,-0.0317 -16.21638,0.18719 -2.94947,0.12033 -5.63002,0.36046 -5.95683,0.53363 -0.32678,0.17318 -1.09128,0.31486 -1.69887,0.31486 -0.60759,0 -1.3721,0.14031 -1.69888,0.31181 -1.1521,0.60459 -3.4363,0.70916 -5.16822,0.2366 z m -476.08566,-5.97176 c -0.60815,-0.33652 -1.64856,-0.43889 -3.35139,-0.32972 -2.894,0.18552 -5.80326,0.16914 -8.99583,-0.0507 -1.26118,-0.0868 -4.27237,-0.2475 -6.69152,-0.35705 -2.41915,-0.10956 -4.87978,-0.34724 -5.46805,-0.52819 -2.70614,-0.83239 -23.54854,-1.4386 -25.86432,-0.75228 -1.93365,0.57307 -4.94758,-0.2488 -6.34775,-1.73097 -1.78546,-1.89004 -1.85513,-2.76985 -0.55874,-7.05556 0.3228,-1.06715 0.61866,-2.41653 0.65745,-2.99861 0.0388,-0.58208 0.18914,-2.15722 0.3341,-3.5003 0.14495,-1.34308 0.30314,-3.89874 0.35153,-5.67924 0.0484,-1.7805 0.1987,-3.41641 0.33402,-3.63536 0.31942,-0.51683 0.316,-6.76858 -0.007,-12.5851 -0.14002,-2.52236 -0.23251,-5.06236 -0.20553,-5.64444 0.027,-0.58209 0.12298,-4.65965 0.21333,-9.06124 0.0904,-4.4016 0.31935,-8.29267 0.50888,-8.64682 0.18953,-0.35414 0.26268,-1.07246 0.16255,-1.59626 -0.2679,-1.40142 2.26472,-4.64545 3.95862,-5.07059 2.31559,-0.58118 5.05995,2.55274 5.1264,5.85407 0.0364,1.81027 1.15323,7.2209 1.60909,7.79563 0.21578,0.27206 0.50414,0.96122 0.64081,1.53147 1.83616,4.61935 7.01411,13.96285 11.06728,16.46775 0.71782,0.43076 2.04501,1.51032 2.94931,2.39904 2.5751,2.53071 4.57006,4.1032 6.29332,4.96057 0.87313,0.43441 2.00925,1.18475 2.52472,1.66743 0.51547,0.48267 2.46532,1.40283 4.33301,2.0448 1.86768,0.64196 3.82719,1.4534 4.35445,1.80319 0.52726,0.34979 1.75241,0.74953 2.72255,0.8883 0.97013,0.13878 2.63192,0.50247 3.69285,0.80819 1.06093,0.30572 3.0453,0.55964 4.40972,0.56427 1.36442,0.005 3.06691,0.14459 3.78332,0.31104 1.5266,0.35467 18.45372,-0.18474 20.34516,-0.64834 1.88807,-0.46276 3.53261,-1.05511 5.51617,-1.98687 0.97014,-0.45572 2.47826,-1.14929 3.35139,-1.54126 3.23217,-1.45102 6.83024,-3.9175 7.65526,-5.24768 0.32388,-0.52221 0.86404,-1.26697 1.20035,-1.65503 0.66755,-0.77026 2.08051,-4.68663 2.08051,-5.76662 0,-0.37048 0.227,-1.21689 0.50445,-1.88092 0.44667,-1.06904 0.6615,-5.2456 0.53946,-10.48793 -0.0309,-1.32664 -1.01991,-3.51405 -1.93059,-4.26984 -0.322,-0.26724 -1.20635,-1.72079 -1.96522,-3.23011 -0.95811,-1.90559 -1.69485,-2.90715 -2.41083,-3.27739 -0.56709,-0.29325 -1.61846,-1.25002 -2.33639,-2.12616 -1.05974,-1.29328 -1.52067,-1.59297 -2.44997,-1.59297 -0.62956,0 -1.54829,-0.3175 -2.04162,-0.70556 -0.49333,-0.38805 -1.39575,-0.70555 -2.00537,-0.70555 -3.21811,-1.08995 -4.44918,-2.72935 -8.34587,-2.372 -15.15144,-0.33759 -21.52647,-0.8913 -29.88649,-2.50813 -1.44233,0.30762 -1.79336,0.27053 -2.36884,-0.25027 -0.52919,-0.47891 -0.78407,-0.52138 -1.17614,-0.19599 -2.57177,-0.52651 -6.27335,-0.68277 -9.187,-1.68534 -0.13481,-0.21812 -0.75168,-0.40522 -1.37081,-0.41577 -3.98048,-0.95846 -9.49733,-2.31037 -11.89899,-5.34563 -0.10448,-0.14088 -0.97559,-0.67387 -1.93582,-1.18442 -0.96022,-0.51056 -2.31787,-1.42866 -3.017,-2.04022 -0.69912,-0.61157 -1.72733,-1.42944 -2.28489,-1.81749 -1.42995,-0.99522 -4.34806,-4.054008 -4.94373,-5.182061 -0.27554,-0.521797 -0.79574,-1.156797 -1.15601,-1.411111 -0.36027,-0.254311 -0.93855,-1.018011 -1.28507,-1.697108 -0.34652,-0.679098 -1.09294,-1.823798 -1.6587,-2.543775 -4.38954,-7.091082 -6.09827,-10.142175 -6.7044,-19.504837 -0.70454,-11.928394 -0.37435,-16.911239 1.48211,-22.366285 0.77481,-2.276683 1.40873,-4.531762 1.40873,-5.011286 0,-0.866298 0.45527,-1.860648 2.24422,-4.901596 0.97161,-2.432391 2.88113,-4.651366 3.94918,-6.741824 1.56894,-3.096161 6.48289,-8.705441 8.14071,-9.292625 2.02834,-2.201438 4.32466,-3.828448 6.65617,-5.67176 1.74829,-1.389987 5.28518,-3.212448 6.71558,-3.460355 0.58913,-0.102101 2.13407,-0.831395 3.43321,-1.620651 5.17087,-3.0771756 11.67794,-4.7030529 18.30649,-6.9346023 1.22454,-0.6526671 7.30767,-1.8654431 10.39483,-2.0723825 1.33369,-0.089401 3.77426,-0.3321191 5.4235,-0.5393726 1.64924,-0.2072569 3.52658,-0.2831641 4.17188,-0.1686807 0.66992,0.1188474 1.38018,0.036424 1.65557,-0.1921263 0.46318,-0.3844043 2.56569,-0.3513137 8.98922,0.1414851 4.91707,0.3772288 11.84839,0.4647565 12.44055,0.157099 1.30993,0.3079987 5.848,-0.3643385 6.49477,-0.093138 0.68434,0.3143674 1.65887,0.361883 12.4619,0.6076174 5.44,0.1237439 7.02474,0.055637 7.57502,-0.3255468 0.38272,-0.2651125 1.25584,-0.4876518 1.94028,-0.4945275 0.68443,-0.00688 1.64129,-0.2393738 2.12636,-0.5166642 1.19682,-0.68416312 2.48935,-0.65304459 3.53748,0.085171 0.47973,0.3378871 1.34679,0.8538246 1.9268,1.1465279 1.46001,0.7368081 1.88897,2.1222406 1.14205,3.6885386 -0.45872,0.9619439 -0.50384,1.4500367 -0.21158,2.2884307 0.20629,0.591753 0.28007,2.0497802 0.16591,3.2785092 -0.11307,1.217055 -0.2818,3.533972 -0.37496,5.148707 -0.0931,1.614738 -0.30928,3.442578 -0.48028,4.061869 -0.3171,1.148458 -0.25827,10.553499 0.082,13.110581 0.10328,0.776111 0.25243,2.125486 0.33144,2.998611 0.079,0.873125 0.42397,2.876098 0.76657,4.451047 0.70664,3.248515 0.58745,4.121919 -0.75906,5.562349 -2.47036,2.060426 -4.75528,0.867419 -5.20999,0.332282 -1.97205,-2.379677 -2.74188,-3.590237 -3.39754,-5.342658 -0.64598,-1.726519 -1.37,-2.71388 -4.48255,-6.112958 -1.58482,-1.73071 -5.96876,-5.240066 -6.54597,-5.240066 -3.28974,-2.697371 -6.27709,-4.254751 -8.89172,-5.265106 -1.16417,-0.248355 -2.69174,-0.751589 -3.39461,-1.118298 -1.06793,-0.557174 -3.63148,-1.076809 -7.57522,-1.535515 -0.40659,-0.04729 -0.9485,-0.2153 -1.20423,-0.373352 -1.15814,-0.715768 -6.92083,-1.547545 -12.78499,-1.369765 l -5.18143,0.157082 c -5.47578,-0.114746 -10.87877,2.761132 -14.4704,4.918846 -0.43765,0 -1.06704,0.538117 -1.63731,1.399854 -0.50951,0.769916 -1.2058,1.488535 -1.54731,1.59693 -4.95943,1.574059 -8.02683,16.566886 -4.55594,22.268466 0.36829,0.604986 0.66962,1.525016 0.66962,2.04451 0,0.565058 0.38976,1.325964 0.97014,1.893933 0.53357,0.522171 1.56724,1.736655 2.29703,2.698852 0.74605,0.983619 1.98149,2.077145 2.82223,2.498031 0.82242,0.411723 1.97157,1.007879 2.55365,1.3248 2.47856,1.349467 4.36924,2.021847 5.68527,2.021847 0.77306,0 1.60407,0.198438 1.84669,0.440972 0.24262,0.242535 1.26656,0.466302 2.27542,0.497262 1.00885,0.03097 5.00929,0.167178 8.88984,0.302715 4.67055,0.163128 8.12881,0.109555 10.23056,-0.158493 1.74625,-0.222708 3.41312,-0.390062 3.70416,-0.371901 0.29105,0.01817 1.79917,0.09239 3.35139,0.164958 6.85887,0.320651 13.67131,1.542186 14.77918,2.65005 0.19524,0.195244 0.60105,0.354287 0.90179,0.353423 1.43119,-0.0041 6.62844,1.944511 7.60237,2.850374 0.58208,0.541404 1.97806,1.326529 3.10219,1.744719 1.12412,0.418193 2.46486,1.150525 2.97942,1.627403 0.51456,0.476878 1.50523,1.18722 2.20148,1.578539 0.69626,0.391319 1.57802,1.176475 1.95947,1.744797 0.38145,0.568321 1.4474,1.522066 2.36877,2.119436 1.08104,0.700881 1.75384,1.421391 1.89685,2.031351 0.12189,0.519878 0.64274,1.421479 1.15744,2.003562 1.91317,2.163639 3.09946,3.91057 3.35387,4.938889 0.144,0.582084 0.64615,1.563423 1.11587,2.180756 0.46973,0.617329 1.01894,1.490454 1.22049,1.940278 0.20154,0.44982 0.75475,1.452855 1.22935,2.228966 0.4746,0.776112 0.86552,1.778734 0.86871,2.228053 0.003,0.449319 0.15147,1.08911 0.32949,1.421758 0.78748,1.471412 1.76157,10.40404 1.75631,16.10574 -0.002,2.32834 0.0175,5.53198 0.0438,7.1192 0.0378,2.28626 -0.11267,3.23912 -0.72401,4.58611 -0.76687,1.68965 -1.50243,4.93818 -2.09217,9.23987 -0.21749,1.58643 -0.61489,2.67648 -1.35042,3.70417 -0.57323,0.80091 -1.16103,2.01183 -1.30622,2.69093 -0.1452,0.6791 -0.80043,2.37042 -1.45607,3.7585 -0.65564,1.38807 -1.19208,2.75795 -1.19208,3.04417 0,0.74502 -1.69266,4.34072 -2.26825,4.81842 -0.26661,0.22126 -0.57422,0.75879 -0.68357,1.1945 -4.85835,4.11249 -6.91474,7.87962 -12.01431,12.58441 -0.24135,0 -1.09394,0.60481 -1.89465,1.34402 -1.3719,1.26654 -1.77242,1.5186 -3.95323,2.48791 -0.48507,0.2156 -1.89192,1.1085 -3.12633,1.98421 -1.23442,0.8757 -2.55944,1.5922 -2.94448,1.5922 -0.38505,0 -1.41816,0.63207 -2.2958,1.4046 -1.76067,1.5498 -5.00502,3.18151 -6.32586,3.18151 -0.46689,0 -1.91614,0.55738 -3.22057,1.23863 -1.30442,0.68125 -3.48531,1.44945 -4.84641,1.70711 -1.36111,0.25766 -2.84577,0.66705 -3.29926,0.90974 -0.45349,0.2427 -1.16001,0.35355 -1.57004,0.24632 -0.93872,-0.24548 -6.76601,0.73637 -8.17819,1.37796 -1.12146,0.50951 -8.92464,1.24659 -14.81667,1.39957 -1.94027,0.0504 -4.16277,0.19081 -4.93888,0.31209 -0.91924,0.14363 -1.71854,0.0504 -2.29306,-0.26755 z"
       id="path404"
       sodipodi:nodetypes="cccssccssssssscsssssssssssssssssssssssccssccccsssssssscccccsssssssccsssccccccsscsccsscsscssssccscsssccscsccccccscccccccsccssssssccsccscsccssssccccsccssscccsssssscsccscssccsccscscccssccsssccssssssssssssssssccssssccsssssssssccscsscssssssscsssscccccscsssccsccsssssscccccssssssccsssccssccssscssccsccsscsscsssssssssssssssssssccssssssscssssssssssssssscccsccccssssssccssccccsccsssssccssssssssscssssccssccssssccssssssssssssssssssssssssssssscsccsssssssccssssssssssssscc" /></g></svg>
