<?xml version="1.0" encoding="UTF-8" standalone="no"?>
<!-- Created with Inkscape (http://www.inkscape.org/) -->

<svg
   width="211.66666mm"
   height="147.87077mm"
   viewBox="0 0 211.66666 147.87077"
   version="1.1"
   id="svg14884"
   inkscape:version="1.2.1 (9c6d41e, 2022-07-14)"
   sodipodi:docname="Wasser.svg"
   xmlns:inkscape="http://www.inkscape.org/namespaces/inkscape"
   xmlns:sodipodi="http://sodipodi.sourceforge.net/DTD/sodipodi-0.dtd"
   xmlns="http://www.w3.org/2000/svg"
   xmlns:svg="http://www.w3.org/2000/svg">
  <sodipodi:namedview
     id="namedview14886"
     pagecolor="#ffffff"
     bordercolor="#000000"
     borderopacity="0.25"
     inkscape:showpageshadow="2"
     inkscape:pageopacity="0.0"
     inkscape:pagecheckerboard="0"
     inkscape:deskcolor="#d1d1d1"
     inkscape:document-units="mm"
     showgrid="false"
     inkscape:zoom="0.2102413"
     inkscape:cx="401.91912"
     inkscape:cy="280.62992"
     inkscape:window-width="1344"
     inkscape:window-height="430"
     inkscape:window-x="0"
     inkscape:window-y="38"
     inkscape:window-maximized="0"
     inkscape:current-layer="layer1" />
  <defs
     id="defs14881" />
  <g
     inkscape:label="Ebene 1"
     inkscape:groupmode="layer"
     id="layer1"
     transform="translate(204.62358,-74.564614)">
    <g
       id="g14863"
       transform="translate(-203.56525,74.249995)">
      <rect
         style="fill:#5d8094;fill-opacity:1;stroke-width:0.260775"
         id="rect378"
         width="210.47986"
         height="147.87077"
         x="-0.31461853"
         y="0.31461853" />
      <path
         id="path462"
         style="fill:#7999ab;fill-opacity:1;stroke:none;stroke-width:0.440972;stroke-opacity:1"
         d="M 4.7283936,16.170072 C 2.5033846,16.205382 0.94177765,17.497529 0,18.59008 v 50.005733 h 210.60833 v -39.6875 -8.819617 c 0,0 -4.40977,8.819401 -13.22916,0 -2.89387,-2.893863 -5.3126,-3.888244 -7.25692,-3.918624 -3.98118,-0.0622 -5.97225,3.918624 -5.97225,3.918624 0,0 -4.40978,8.819401 -13.22917,0 -2.89386,-2.893863 -5.3126,-3.888244 -7.25692,-3.918624 -3.98121,-0.0622 -5.97224,3.918624 -5.97224,3.918624 0,0 -4.40977,8.819401 -13.22917,0 -2.89386,-2.893863 -5.3126,-3.888244 -7.25692,-3.918624 -3.98122,-0.0622 -5.97225,3.918624 -5.97225,3.918624 0,0 -4.40976,8.819401 -13.22916,0 -2.89387,-2.893863 -5.31262,-3.888244 -7.25692,-3.918624 -0.0622,-9.74e-4 -0.12428,-9.72e-4 -0.18552,0 -3.85779,0.06122 -5.78673,3.918624 -5.78673,3.918624 0,0 -4.40977,8.819401 -13.229167,0 -2.893857,-2.893863 -5.312609,-3.888244 -7.256921,-3.918624 -3.981222,-0.0622 -5.972245,3.918624 -5.972245,3.918624 0,0 -4.409759,8.819401 -13.229167,0 -2.893857,-2.893863 -5.31261,-3.888244 -7.256921,-3.918624 -3.981223,-0.0622 -5.972246,3.918624 -5.972246,3.918624 0,0 -4.409763,8.819401 -13.229166,0 C 35.735303,17.194833 33.316561,16.200452 31.372245,16.170072 27.391025,16.107872 25.4,20.088696 25.4,20.088696 c 0,0 -4.409764,8.819401 -13.229167,0 -2.8938642,-2.893863 -5.3126053,-3.888244 -7.2569211,-3.918624 -0.0622,-9.74e-4 -0.1242788,-9.72e-4 -0.1855183,0 z" />
      <path
         id="path462-0"
         style="fill:#5d8094;fill-opacity:1;stroke:none;stroke-width:0.440972;stroke-opacity:1"
         d="M 4.7283936,35.239709 C 2.5033845,35.275019 0.9417776,36.567166 0,37.659717 V 87.3125 h -1.0583333 v 0.35295 H 210.60833 v -39.6875 -8.819617 c 0,0 -4.40977,8.819402 -13.22916,0 -2.89387,-2.893863 -5.3126,-3.888244 -7.25692,-3.918624 -3.98118,-0.0622 -5.97225,3.918624 -5.97225,3.918624 0,0 -4.40978,8.819402 -13.22917,0 -2.89386,-2.893863 -5.3126,-3.888244 -7.25692,-3.918624 -3.98121,-0.0622 -5.97224,3.918624 -5.97224,3.918624 0,0 -4.40977,8.819402 -13.22917,0 -2.89386,-2.893863 -5.3126,-3.888244 -7.25692,-3.918624 -3.98122,-0.0622 -5.97225,3.918624 -5.97225,3.918624 0,0 -4.40976,8.819402 -13.22916,0 -2.89387,-2.893863 -5.31262,-3.888244 -7.25692,-3.918624 -0.0622,-9.74e-4 -0.12428,-9.72e-4 -0.18552,0 -3.85779,0.06122 -5.78673,3.918624 -5.78673,3.918624 0,0 -4.40977,8.819402 -13.229167,0 -2.893857,-2.893863 -5.312609,-3.888244 -7.256921,-3.918624 -3.981222,-0.0622 -5.972245,3.918624 -5.972245,3.918624 0,0 -4.409759,8.819402 -13.229167,0 -2.893857,-2.893863 -5.31261,-3.888244 -7.256921,-3.918624 -3.981223,-0.0622 -5.972246,3.918624 -5.972246,3.918624 0,0 -4.409763,8.819402 -13.229166,0 C 35.735303,36.26447 33.316561,35.270089 31.372245,35.239709 27.391025,35.17751 25.4,39.158333 25.4,39.158333 c 0,0 -4.409764,8.819402 -13.229167,0 -2.8938647,-2.893863 -5.312606,-3.888244 -7.2569211,-3.918624 -0.0622,-9.74e-4 -0.1242794,-9.72e-4 -0.1855183,0 z" />
      <path
         id="path462-2"
         style="fill:#7999ab;fill-opacity:1;stroke:none;stroke-width:0.440972;stroke-opacity:1"
         d="M 4.7283936,55.348043 C 2.5033846,55.383352 0.94177768,56.675499 0,57.76805 v 50.00522 H 210.60833 V 68.086283 59.266667 c 0,0 -4.40977,8.819401 -13.22916,0 -2.89387,-2.893863 -5.3126,-3.888244 -7.25692,-3.918624 -3.98118,-0.0622 -5.97225,3.918624 -5.97225,3.918624 0,0 -4.40978,8.819401 -13.22917,0 -2.89386,-2.893863 -5.3126,-3.888244 -7.25692,-3.918624 -3.98121,-0.0622 -5.97224,3.918624 -5.97224,3.918624 0,0 -4.40977,8.819401 -13.22917,0 -2.89386,-2.893863 -5.3126,-3.888244 -7.25692,-3.918624 -3.98122,-0.0622 -5.97225,3.918624 -5.97225,3.918624 0,0 -4.40976,8.819401 -13.22916,0 -2.89387,-2.893863 -5.31262,-3.888244 -7.25692,-3.918624 -0.0622,-9.74e-4 -0.12428,-9.72e-4 -0.18552,0 -3.85779,0.06122 -5.78673,3.918624 -5.78673,3.918624 0,0 -4.40978,8.819401 -13.229167,0 -2.893861,-2.893863 -5.312609,-3.888244 -7.256921,-3.918624 -3.981222,-0.0622 -5.972245,3.918624 -5.972245,3.918624 0,0 -4.409759,8.819401 -13.229167,0 -2.893857,-2.893863 -5.31261,-3.888244 -7.256921,-3.918624 -3.981223,-0.0622 -5.972246,3.918624 -5.972246,3.918624 0,0 -4.409763,8.819401 -13.229166,0 C 35.735303,56.372804 33.316561,55.378423 31.372245,55.348043 27.391025,55.285843 25.4,59.266667 25.4,59.266667 c 0,0 -4.409764,8.819401 -13.229167,0 -2.8938632,-2.893863 -5.312606,-3.888244 -7.2569211,-3.918624 -0.0622,-9.74e-4 -0.1242794,-9.72e-4 -0.1855183,0 z" />
      <path
         id="path462-0-8"
         style="fill:#5d8094;fill-opacity:1;stroke:none;stroke-width:0.440972;stroke-opacity:1"
         inkscape:label="path462-0-8"
         d="M 4.7283936,78.101693 C 2.5033845,78.13699 0.9417776,79.429668 0,80.522217 v 50.005213 h 210.60833 v -39.687497 -8.8191 c 0,0 -4.40977,8.819354 -13.22916,0 -2.89387,-2.893849 -5.3126,-3.88876 -7.25692,-3.91914 -3.98118,-0.0622 -5.97225,3.91914 -5.97225,3.91914 0,0 -4.40978,8.819354 -13.22917,0 -2.89386,-2.893849 -5.3126,-3.88876 -7.25692,-3.91914 -3.98121,-0.0622 -5.97224,3.91914 -5.97224,3.91914 0,0 -4.40977,8.819354 -13.22917,0 -2.89386,-2.893849 -5.3126,-3.88876 -7.25692,-3.91914 -3.98122,-0.0622 -5.97225,3.91914 -5.97225,3.91914 0,0 -4.40976,8.819354 -13.22916,0 -2.89387,-2.893849 -5.31262,-3.88876 -7.25692,-3.91914 -0.0622,-9.7e-4 -0.12428,-9.7e-4 -0.18552,0 -3.85779,0.0612 -5.78673,3.91914 -5.78673,3.91914 0,0 -4.40977,8.819354 -13.229167,0 -2.893857,-2.893849 -5.312609,-3.88876 -7.256921,-3.91914 -3.981222,-0.0622 -5.972245,3.91914 -5.972245,3.91914 0,0 -4.409759,8.819354 -13.229167,0 -2.893857,-2.893849 -5.31261,-3.88876 -7.256921,-3.91914 -3.981223,-0.0622 -5.972246,3.91914 -5.972246,3.91914 0,0 -4.409763,8.819354 -13.229166,0 -2.893864,-2.893849 -5.312606,-3.88876 -7.256922,-3.91914 -3.98122,-0.0622 -5.972245,3.91914 -5.972245,3.91914 0,0 -4.409763,8.819354 -13.229167,0 -2.8938653,-2.893849 -5.3126061,-3.88876 -7.2569211,-3.91914 -0.0622,-9.7e-4 -0.1242794,-9.7e-4 -0.1855183,0 z" />
      <path
         id="path462-2-6"
         style="fill:#7999ab;fill-opacity:1;stroke:none;stroke-width:0.440972;stroke-opacity:1"
         d="M 4.7283936,99.798043 C 2.5033868,99.83334 0.94177694,101.1255 0,102.21805 v 45.94862 h 210.60833 v -35.63039 -8.81961 c 0,0 -4.40978,8.81939 -13.22916,0 -2.89387,-2.89386 -5.31261,-3.888247 -7.25692,-3.918627 -3.98118,-0.0622 -5.97225,3.918627 -5.97225,3.918627 0,0 -4.40979,8.81939 -13.22917,0 -2.89385,-2.89386 -5.3126,-3.888247 -7.25692,-3.918627 -3.9812,-0.0622 -5.97224,3.918627 -5.97224,3.918627 0,0 -4.40978,8.81939 -13.22917,0 -2.89386,-2.89386 -5.3126,-3.888247 -7.25692,-3.918627 -3.98122,-0.0622 -5.97225,3.918627 -5.97225,3.918627 0,0 -4.40977,8.81939 -13.22916,0 -2.89387,-2.89386 -5.31263,-3.888247 -7.25692,-3.918627 -0.0622,-9.8e-4 -0.12428,-9.7e-4 -0.18552,0 -3.85779,0.0612 -5.78673,3.918627 -5.78673,3.918627 0,0 -4.4098,8.81939 -13.229167,0 -2.893864,-2.89386 -5.312615,-3.888247 -7.256921,-3.918627 -3.981222,-0.0622 -5.972245,3.918627 -5.972245,3.918627 0,0 -4.409768,8.81939 -13.229167,0 -2.893854,-2.89386 -5.312612,-3.888247 -7.256921,-3.918627 -3.981219,-0.0622 -5.972246,3.918627 -5.972246,3.918627 0,0 -4.409772,8.81939 -13.229166,0 -2.893861,-2.89386 -5.312608,-3.888247 -7.256922,-3.918627 C 27.391029,99.735843 25.4,103.71667 25.4,103.71667 c 0,0 -4.409772,8.81939 -13.229167,0 -2.893859,-2.89386 -5.3126079,-3.888247 -7.2569211,-3.918627 -0.0622,-9.8e-4 -0.1242795,-9.7e-4 -0.1855183,0 z" />
      <path
         id="path462-0-8-5"
         style="fill:#5d8094;fill-opacity:1;stroke:none;stroke-width:0.440972;stroke-opacity:1"
         inkscape:label="path462-0-8"
         d="M 4.7283936,122.55221 C 2.5033862,122.58751 0.94177648,123.87967 0,124.97222 v 23.19445 h 210.60833 v -12.87622 -8.81962 c 0,0 -4.40978,8.81935 -13.22916,0 -2.89387,-2.89383 -5.31261,-3.88824 -7.25692,-3.91862 -3.98118,-0.0622 -5.97225,3.91862 -5.97225,3.91862 0,0 -4.40979,8.81935 -13.22917,0 -2.89385,-2.89383 -5.3126,-3.88824 -7.25692,-3.91862 -3.9812,-0.0622 -5.97224,3.91862 -5.97224,3.91862 0,0 -4.40978,8.81935 -13.22917,0 -2.89386,-2.89383 -5.3126,-3.88824 -7.25692,-3.91862 -3.98122,-0.0622 -5.97225,3.91862 -5.97225,3.91862 0,0 -4.40977,8.81935 -13.22916,0 -2.89387,-2.89383 -5.31263,-3.88824 -7.25692,-3.91862 -0.0622,-9.7e-4 -0.12428,-9.7e-4 -0.18552,0 -3.85779,0.0612 -5.78673,3.91862 -5.78673,3.91862 0,0 -4.40979,8.81935 -13.229167,0 -2.893854,-2.89383 -5.312611,-3.88824 -7.256921,-3.91862 -3.981218,-0.0622 -5.972245,3.91862 -5.972245,3.91862 0,0 -4.409768,8.81935 -13.229167,0 -2.893854,-2.89383 -5.312612,-3.88824 -7.256921,-3.91862 -3.981219,-0.0622 -5.972246,3.91862 -5.972246,3.91862 0,0 -4.409772,8.81935 -13.229166,0 -2.893861,-2.89383 -5.312608,-3.88824 -7.256922,-3.91862 -3.981216,-0.0622 -5.972245,3.91862 -5.972245,3.91862 0,0 -4.409771,8.81935 -13.229167,0 -2.893862,-2.89383 -5.3126079,-3.88824 -7.2569211,-3.91862 -0.0622,-9.7e-4 -0.1242805,-9.7e-4 -0.1855183,0 z" />
    </g>
  </g>
</svg>
